<svg version="1.1" viewBox="0 0 96 96" xmlns="http://www.w3.org/2000/svg" xmlns:xlink="http://www.w3.org/1999/xlink" id="Icons" overflow="hidden"><g><ellipse cx="48" cy="18" rx="28" ry="8" stroke="none" stroke-width="1" stroke-linecap="butt" stroke-dasharray="" stroke-dashoffset="1" fill="#00B050" fill-opacity="1"/><path d=" M 68 38 C 66.8 38 66 37.2 66 36 C 66 34.8 66.8 34 68 34 C 69.2 34 70 34.8 70 36 C 70 37.2 69.2 38 68 38 Z M 48 30 C 32.6 30 20 26.4 20 22 L 20 38 C 20 42.4 32.6 46 48 46 C 63.4 46 76 42.4 76 38 L 76 22 C 76 26.4 63.4 30 48 30 Z" stroke="none" stroke-width="1" stroke-linecap="butt" stroke-dasharray="" stroke-dashoffset="1" fill="#00B050" fill-opacity="1"/><path d=" M 68 58 C 66.8 58 66 57.2 66 56 C 66 54.8 66.8 54 68 54 C 69.2 54 70 54.8 70 56 C 70 57.2 69.2 58 68 58 Z M 48 50 C 32.6 50 20 46.4 20 42 L 20 58 C 20 62.4 32.6 66 48 66 C 63.4 66 76 62.4 76 58 L 76 42 C 76 46.4 63.4 50 48 50 Z" stroke="none" stroke-width="1" stroke-linecap="butt" stroke-dasharray="" stroke-dashoffset="1" fill="#00B050" fill-opacity="1"/><path d=" M 68 78 C 66.8 78 66 77.2 66 76 C 66 74.8 66.8 74 68 74 C 69.2 74 70 74.8 70 76 C 70 77.2 69.2 78 68 78 Z M 48 70 C 32.6 70 20 66.4 20 62 L 20 78 C 20 82.4 32.6 86 48 86 C 63.4 86 76 82.4 76 78 L 76 62 C 76 66.4 63.4 70 48 70 Z" stroke="none" stroke-width="1" stroke-linecap="butt" stroke-dasharray="" stroke-dashoffset="1" fill="#00B050" fill-opacity="1"/></g></svg>